<svg xmlns="http://www.w3.org/2000/svg" xmlns:xlink="http://www.w3.org/1999/xlink" contentStyleType="text/css" data-diagram-type="DESCRIPTION" height="1246px" preserveAspectRatio="none" style="width:1403px;height:1246px;background:#FFFFFF;" version="1.1" viewBox="0 0 1403 1246" width="1403px" zoomAndPan="magnify"><?plantuml 1.2026.7beta1?><defs/><g><g class="title" data-source-line="28"><text fill="#000000" font-family="sans-serif" font-size="14" font-weight="700" lengthAdjust="spacing" textLength="415.8164" x="490.1775" y="22.9951">RepoRAG System Architecture &amp; 2-Week Sprint Flow</text></g><rect fill="#FFFFCC" height="16.6406" rx="2.5" ry="2.5" style="stroke:#FFDD88;stroke-width:3;" width="1387.1714" x="3" y="40.2969"/><text fill="#000000" font-family="monospace" font-size="10" lengthAdjust="spacing" textLength="355.21" x="10" y="50.9375">Please&#160;use&#160;'!option&#160;handwritten&#160;true'&#160;to&#160;enable&#160;handwritten</text><!--cluster User Interface--><g class="cluster" data-qualified-name="User Interface" data-source-line="30" id="ent0001"><polygon fill="#E8F5E9" points="16,835.7175,26,825.7175,572,825.7175,572,1053.9075,562,1063.9075,16,1063.9075,16,835.7175" style="stroke:#4CAF50;stroke-width:1;stroke-linejoin:miter;stroke-miterlimit:10;"/><line style="stroke:#4CAF50;stroke-width:1;" x1="562" x2="572" y1="835.7175" y2="825.7175"/><line style="stroke:#4CAF50;stroke-width:1;" x1="16" x2="562" y1="835.7175" y2="835.7175"/><line style="stroke:#4CAF50;stroke-width:1;" x1="562" x2="562" y1="835.7175" y2="1063.9075"/><text fill="#1B5E20" font-family="sans-serif" font-size="14" font-weight="700" lengthAdjust="spacing" textLength="112.5742" x="233.7129" y="851.7126">User Interface</text></g><!--cluster Week 1: Data Pipeline & Storage--><g class="cluster" data-qualified-name="Week 1. Data Pipeline . Storage" data-source-line="35" id="ent0004"><rect fill="#E1F5FE" height="489.19" rx="2.5" ry="2.5" style="stroke:#03A9F4;stroke-width:1;" width="460" x="64" y="165.2275"/><text fill="#01579B" font-family="sans-serif" font-size="14" font-style="italic" lengthAdjust="spacing" textLength="65.2148" x="261.3926" y="180.2226">&#171;Week1&#187;</text><text fill="#01579B" font-family="sans-serif" font-size="14" font-weight="700" lengthAdjust="spacing" textLength="258.7676" x="164.6162" y="196.5195">Week 1: Data Pipeline &amp; Storage</text></g><!--cluster Week 2: Retrieval & AI Engine--><g class="cluster" data-qualified-name="Week 2. Retrieval . AI Engine" data-source-line="46" id="ent0011"><rect fill="#EFEBE9" height="375.04" rx="2.5" ry="2.5" style="stroke:#795548;stroke-width:1;" width="671" x="596" y="551.1175"/><text fill="#3E2723" font-family="sans-serif" font-size="14" font-style="italic" lengthAdjust="spacing" textLength="65.2148" x="898.8926" y="566.1126">&#171;Week2&#187;</text><text fill="#3E2723" font-family="sans-serif" font-size="14" font-weight="700" lengthAdjust="spacing" textLength="237.0566" x="812.9717" y="582.4095">Week 2: Retrieval &amp; AI Engine</text></g><!--cluster Day 10: Review--><g class="cluster" data-qualified-name="Day 10. Review" data-source-line="53" id="ent0016"><rect fill="#EFEBE9" height="119.59" rx="2.5" ry="2.5" style="stroke:#795548;stroke-width:1;" width="228" x="301" y="1112.9075"/><text fill="#3E2723" font-family="sans-serif" font-size="14" font-style="italic" lengthAdjust="spacing" textLength="65.2148" x="382.3926" y="1127.9026">&#171;Week2&#187;</text><text fill="#3E2723" font-family="sans-serif" font-size="14" font-weight="700" lengthAdjust="spacing" textLength="121.6523" x="354.1738" y="1144.1995">Day 10: Review</text></g><!--entity User--><g class="entity" data-qualified-name="User Interface.User" data-source-line="31" id="ent0002"><rect fill="#F1F1F1" height="52.5938" rx="2.5" ry="2.5" style="stroke:#181818;stroke-width:0.5;" width="137.5303" x="160.23" y="865.7175"/><text fill="#000000" font-family="sans-serif" font-size="14" font-style="italic" lengthAdjust="spacing" textLength="44.4814" x="206.7544" y="888.7126">&#171;App&#187;</text><text fill="#000000" font-family="sans-serif" font-size="14" lengthAdjust="spacing" textLength="117.5303" x="170.23" y="905.0095">Developer / User</text></g><!--entity CLI--><g class="entity" data-qualified-name="User Interface.CLI" data-source-line="32" id="ent0003"><rect fill="#F1F1F1" height="52.5938" rx="2.5" ry="2.5" style="stroke:#181818;stroke-width:0.5;" width="163.8486" x="333.08" y="995.3075"/><text fill="#000000" font-family="sans-serif" font-size="14" font-style="italic" lengthAdjust="spacing" textLength="44.4814" x="392.7636" y="1018.3026">&#171;App&#187;</text><text fill="#000000" font-family="sans-serif" font-size="14" lengthAdjust="spacing" textLength="143.8486" x="343.08" y="1034.5995">Day 9: main.py (CLI)</text></g><!--entity Extractor--><g class="entity" data-qualified-name="Week 1. Data Pipeline . Storage.Extractor" data-source-line="36" id="ent0005"><rect fill="#F1F1F1" height="36.2969" rx="2.5" ry="2.5" style="stroke:#181818;stroke-width:0.5;" width="156.0215" x="94.99" y="216.2275"/><text fill="#000000" font-family="sans-serif" font-size="14" lengthAdjust="spacing" textLength="136.0215" x="104.99" y="239.2226">Day 2: extractor.py</text></g><!--entity Parser--><g class="entity" data-qualified-name="Week 1. Data Pipeline . Storage.Parser" data-source-line="37" id="ent0006"><rect fill="#F1F1F1" height="36.2969" rx="2.5" ry="2.5" style="stroke:#181818;stroke-width:0.5;" width="185.3545" x="80.32" y="329.5275"/><text fill="#000000" font-family="sans-serif" font-size="14" lengthAdjust="spacing" textLength="165.3545" x="90.32" y="352.5226">Day 3: Metadata Parser</text></g><!--entity Embedder--><g class="entity" data-qualified-name="Week 1. Data Pipeline . Storage.Embedder" data-source-line="38" id="ent0007"><rect fill="#F1F1F1" height="36.2969" rx="2.5" ry="2.5" style="stroke:#181818;stroke-width:0.5;" width="199.9355" x="297.03" y="447.3275"/><text fill="#000000" font-family="sans-serif" font-size="14" lengthAdjust="spacing" textLength="179.9355" x="307.03" y="470.3226">Day 4: embedding_model</text></g><!--entity Ingest--><g class="entity" data-qualified-name="Week 1. Data Pipeline . Storage.Ingest" data-source-line="39" id="ent0008"><rect fill="#F1F1F1" height="36.2969" rx="2.5" ry="2.5" style="stroke:#181818;stroke-width:0.5;" width="134.8369" x="189.58" y="602.1175"/><text fill="#000000" font-family="sans-serif" font-size="14" lengthAdjust="spacing" textLength="114.8369" x="199.58" y="625.1126">Day 5: ingest.py</text></g><!--entity JSON--><g class="entity" data-qualified-name="Week 1. Data Pipeline . Storage.JSON" data-source-line="41" id="ent0009"><path d="M79.84,452.8275 C79.84,442.8275 170.9997,442.8275 170.9997,442.8275 C170.9997,442.8275 262.1593,442.8275 262.1593,452.8275 L262.1593,478.1244 C262.1593,488.1244 170.9997,488.1244 170.9997,488.1244 C170.9997,488.1244 79.84,488.1244 79.84,478.1244 L79.84,452.8275" fill="#FFF3E0" style="stroke:#FF9800;stroke-width:0.5;"/><path d="M79.84,452.8275 C79.84,462.8275 170.9997,462.8275 170.9997,462.8275 C170.9997,462.8275 262.1593,462.8275 262.1593,452.8275" fill="none" style="stroke:#FF9800;stroke-width:0.5;"/><text fill="#E65100" font-family="sans-serif" font-size="14" lengthAdjust="spacing" textLength="162.3193" x="89.84" y="479.8226">data/raw_commits.json</text></g><!--entity Filters--><g class="entity" data-qualified-name="Week 2. Retrieval . AI Engine.Filters" data-source-line="47" id="ent0012"><rect fill="#F1F1F1" height="36.2969" rx="2.5" ry="2.5" style="stroke:#181818;stroke-width:0.5;" width="196.9619" x="832.52" y="602.1175"/><text fill="#000000" font-family="sans-serif" font-size="14" lengthAdjust="spacing" textLength="176.9619" x="842.52" y="625.1126">Day 6: search.py (Filters)</text></g><!--entity Search--><g class="entity" data-qualified-name="Week 2. Retrieval . AI Engine.Search" data-source-line="48" id="ent0013"><rect fill="#F1F1F1" height="36.2969" rx="2.5" ry="2.5" style="stroke:#181818;stroke-width:0.5;" width="188.6904" x="635.65" y="721.9175"/><text fill="#000000" font-family="sans-serif" font-size="14" lengthAdjust="spacing" textLength="168.6904" x="645.65" y="744.9126">Day 7: Semantic Search</text></g><!--entity Prompt--><g class="entity" data-qualified-name="Week 2. Retrieval . AI Engine.Prompt" data-source-line="49" id="ent0014"><rect fill="#F1F1F1" height="36.2969" rx="2.5" ry="2.5" style="stroke:#181818;stroke-width:0.5;" width="191.6572" x="897.17" y="721.9175"/><text fill="#000000" font-family="sans-serif" font-size="14" lengthAdjust="spacing" textLength="171.6572" x="907.17" y="744.9126">Day 8: Prompt Template</text></g><!--entity LLM--><g class="entity" data-qualified-name="Week 2. Retrieval . AI Engine.LLM" data-source-line="50" id="ent0015"><rect fill="#F1F1F1" height="36.2969" rx="2.5" ry="2.5" style="stroke:#181818;stroke-width:0.5;" width="191.4248" x="612.29" y="873.8675"/><text fill="#000000" font-family="sans-serif" font-size="14" lengthAdjust="spacing" textLength="171.4248" x="622.29" y="896.8626">OpenAI API / LLM Engine</text></g><!--entity Retro--><g class="entity" data-qualified-name="Day 10. Review.Retro" data-source-line="54" id="ent0017"><rect fill="#F1F1F1" height="52.5938" rx="2.5" ry="2.5" style="stroke:#181818;stroke-width:0.5;" width="195.3145" x="317.34" y="1163.9075"/><text fill="#000000" font-family="sans-serif" font-size="14" lengthAdjust="spacing" textLength="175.3145" x="327.34" y="1186.9026">3 Real-World Bug Demos</text><text fill="#000000" font-family="sans-serif" font-size="14" lengthAdjust="spacing" textLength="112.2871" x="327.34" y="1203.1995">&amp; Retrospective</text></g><!--entity ChromaDB--><g class="entity" data-qualified-name="ChromaDB" data-source-line="44" id="ent0010"><path d="M163.26,727.4175 C163.26,717.4175 257.0002,717.4175 257.0002,717.4175 C257.0002,717.4175 350.7405,717.4175 350.7405,727.4175 L350.7405,752.7144 C350.7405,762.7144 257.0002,762.7144 257.0002,762.7144 C257.0002,762.7144 163.26,762.7144 163.26,752.7144 L163.26,727.4175" fill="#FFF3E0" style="stroke:#FF9800;stroke-width:0.5;"/><path d="M163.26,727.4175 C163.26,737.4175 257.0002,737.4175 257.0002,737.4175 C257.0002,737.4175 350.7405,737.4175 350.7405,727.4175" fill="none" style="stroke:#FF9800;stroke-width:0.5;"/><text fill="#E65100" font-family="sans-serif" font-size="14" lengthAdjust="spacing" textLength="167.4805" x="173.26" y="754.4126">ChromaDB Vector Store</text></g><!--entity Local Git Repository--><g class="entity" data-qualified-name="Local Git Repository" data-source-line="58" id="ent0018"><rect fill="#F1F1F1" height="36.2969" rx="2.5" ry="2.5" style="stroke:#181818;stroke-width:0.5;" width="160.7314" x="92.63" y="65.9375"/><text fill="#000000" font-family="sans-serif" font-size="14" lengthAdjust="spacing" textLength="140.7314" x="102.63" y="88.9326">Local Git Repository</text></g><!--link Local Git Repository to Extractor--><g class="link" data-entity-1="ent0018" data-entity-2="ent0005" data-link-type="dependency" data-source-line="58" id="lnk19"><path d="M173,102.6775 C173,131.2175 173,182.2875 173,210.8075" fill="none" id="Local Git Repository-to-Extractor" style="stroke:#181818;stroke-width:1;"/><polygon fill="#181818" points="173,215.8075,177,206.8075,173,210.8075,169,206.8075,173,215.8075" style="stroke:#181818;stroke-width:1;stroke-linejoin:miter;stroke-miterlimit:10;"/><text fill="#000000" font-family="sans-serif" font-size="13" lengthAdjust="spacing" textLength="174.4526" x="174" y="145.2944">(1) Connects via GitPython</text></g><!--link Extractor to Parser--><g class="link" data-entity-1="ent0005" data-entity-2="ent0006" data-link-type="dependency" data-source-line="59" id="lnk20"><path d="M173,252.7675 C173,273.5575 173,303.1475 173,324.0375" fill="none" id="Extractor-to-Parser" style="stroke:#181818;stroke-width:1;"/><polygon fill="#181818" points="173,329.0375,177,320.0375,173,324.0375,169,320.0375,173,329.0375" style="stroke:#181818;stroke-width:1;stroke-linejoin:miter;stroke-miterlimit:10;"/><text fill="#000000" font-family="sans-serif" font-size="13" lengthAdjust="spacing" textLength="240.208" x="174" y="295.5944">(2) Extracts raw text commits &amp; diffs</text></g><!--link Parser to JSON--><g class="link" data-entity-1="ent0006" data-entity-2="ent0009" data-link-type="dependency" data-source-line="60" id="lnk21"><path d="M172.7,366.2675 C172.34,386.6375 171.8458,415.2282 171.4658,437.3582" fill="none" id="Parser-to-JSON" style="stroke:#181818;stroke-width:1;"/><polygon fill="#181818" points="171.38,442.3575,175.5339,433.4275,171.4658,437.3582,167.5351,433.2902,171.38,442.3575" style="stroke:#181818;stroke-width:1;stroke-linejoin:miter;stroke-miterlimit:10;"/><text fill="#000000" font-family="sans-serif" font-size="13" lengthAdjust="spacing" textLength="297.9971" x="174" y="408.8944">(3) Saves Structured Table (Text + Metadata)</text></g><!--link JSON to Ingest--><g class="link" data-entity-1="ent0009" data-entity-2="ent0008" data-link-type="dependency" data-source-line="61" id="lnk22"><path d="M133.16,488.3275 C116.26,501.0675 102.12,517.9675 112,535.1175 C130.74,567.6575 162.7799,586.8802 194.5499,599.8302" fill="none" id="JSON-to-Ingest" style="stroke:#181818;stroke-width:1;"/><polygon fill="#181818" points="199.18,601.7175,192.3556,594.6162,194.5499,599.8302,189.3359,602.0244,199.18,601.7175" style="stroke:#181818;stroke-width:1;stroke-linejoin:miter;stroke-miterlimit:10;"/><text fill="#000000" font-family="sans-serif" font-size="13" lengthAdjust="spacing" textLength="144.1426" x="113" y="531.1844">(4) Reads JSON blocks</text></g><!--link Embedder to Ingest--><g class="link" data-entity-1="ent0007" data-entity-2="ent0008" data-link-type="dependency" data-source-line="62" id="lnk23"><path d="M380.94,483.9975 C353.93,513.4775 303.1276,568.9208 276.2476,598.2608" fill="none" id="Embedder-to-Ingest" style="stroke:#181818;stroke-width:1;"/><polygon fill="#181818" points="272.87,601.9475,281.899,598.0135,276.2476,598.2608,276.0003,592.6093,272.87,601.9475" style="stroke:#181818;stroke-width:1;stroke-linejoin:miter;stroke-miterlimit:10;"/><text fill="#000000" font-family="sans-serif" font-size="13" lengthAdjust="spacing" textLength="205.5117" x="349" y="531.1844">(5) Formats numerical matrices</text></g><!--link Ingest to ChromaDB--><g class="link" data-entity-1="ent0008" data-entity-2="ent0010" data-link-type="dependency" data-source-line="63" id="lnk24"><path d="M257,638.9075 C257,659.8275 257,689.7175 257,712.2975" fill="none" id="Ingest-to-ChromaDB" style="stroke:#181818;stroke-width:1;"/><polygon fill="#181818" points="257,717.2975,261,708.2975,257,712.2975,253,708.2975,257,717.2975" style="stroke:#181818;stroke-width:1;stroke-linejoin:miter;stroke-miterlimit:10;"/><text fill="#000000" font-family="sans-serif" font-size="13" lengthAdjust="spacing" textLength="296.0928" x="258" y="683.4844">(6) Saves Vector Arrays &amp; Metadata Payloads</text></g><!--link User to CLI--><g class="link" data-entity-1="ent0002" data-entity-2="ent0003" data-link-type="dependency" data-source-line="66" id="lnk25"><path d="M159.74,900.3375 C101.38,909.2475 32.1,927.9875 64,965.3075 C97.87,1004.9375 234.9929,1016.166 327.6729,1019.346" fill="none" id="User-to-CLI" style="stroke:#181818;stroke-width:1;"/><polygon fill="#181818" points="332.67,1019.5175,323.8125,1015.2112,327.6729,1019.346,323.5381,1023.2065,332.67,1019.5175" style="stroke:#181818;stroke-width:1;stroke-linejoin:miter;stroke-miterlimit:10;"/><text fill="#000000" font-family="sans-serif" font-size="13" lengthAdjust="spacing" textLength="248.3203" x="65" y="961.3744">(7) Inputs Bug Description / Crash Log</text></g><!--link CLI to User--><g class="link" data-entity-1="ent0003" data-entity-2="ent0002" data-link-type="dependency" data-source-line="73" id="lnk32"><path d="M382.28,995.1375 C363.71,980.9575 339.87,963.2175 318,948.3075 C303.27,938.2675 291.0266,930.4407 276.2766,921.3507" fill="none" id="CLI-to-User" style="stroke:#181818;stroke-width:1;"/><polygon fill="#181818" points="272.02,918.7275,277.5833,926.8546,276.2766,921.3507,281.7805,920.044,272.02,918.7275" style="stroke:#181818;stroke-width:1;stroke-linejoin:miter;stroke-miterlimit:10;"/><text fill="#000000" font-family="sans-serif" font-size="13" lengthAdjust="spacing" textLength="197.9834" x="341" y="961.3744">(14) Prints solution in terminal</text></g><!--link CLI to Filters--><g class="link" data-entity-1="ent0003" data-entity-2="ent0012" data-link-type="dependency" data-source-line="67" id="lnk26"><path d="M497.34,1020.3875 C598.92,1018.1475 775.96,1007.7175 921,965.3075 C1070.49,921.5975 1152.88,942.0575 1235,809.7175 C1271.12,751.5075 1223.96,711.3175 1169,670.4175 C1146.83,653.9175 1089.9747,642.1792 1034.9047,633.9192" fill="none" id="CLI-to-Filters" style="stroke:#181818;stroke-width:1;"/><polygon fill="#181818" points="1029.96,633.1775,1038.2671,638.4682,1034.9047,633.9192,1039.4538,630.5567,1029.96,633.1775" style="stroke:#181818;stroke-width:1;stroke-linejoin:miter;stroke-miterlimit:10;"/><text fill="#000000" font-family="sans-serif" font-size="13" lengthAdjust="spacing" textLength="143.1714" x="1244" y="805.7844">(8) Passes Text Query</text></g><!--link Filters to Search--><g class="link" data-entity-1="ent0012" data-entity-2="ent0013" data-link-type="dependency" data-source-line="68" id="lnk27"><path d="M900.91,638.9075 C862.91,661.1775 802.2235,696.739 764.2835,718.979" fill="none" id="Filters-to-Search" style="stroke:#181818;stroke-width:1;"/><polygon fill="#181818" points="759.97,721.5075,769.7572,720.4069,764.2835,718.979,765.7115,713.5053,759.97,721.5075" style="stroke:#181818;stroke-width:1;stroke-linejoin:miter;stroke-miterlimit:10;"/><text fill="#000000" font-family="sans-serif" font-size="13" lengthAdjust="spacing" textLength="316.2974" x="844" y="683.4844">(9) Narrows search space (e.g., folder matching)</text></g><!--link ChromaDB to Search--><g class="link" data-entity-1="ent0010" data-entity-2="ent0013" data-link-type="dependency" data-source-line="69" id="lnk28"><path d="M356.02,740.0675 C438.46,740.0675 547.73,740.0675 630.35,740.0675" fill="none" id="ChromaDB-Search" style="stroke:#181818;stroke-width:1;stroke-dasharray:7,7;"/><polygon fill="#181818" points="351.02,740.0675,360.02,744.0675,356.02,740.0675,360.02,736.0675,351.02,740.0675" style="stroke:#181818;stroke-width:1;stroke-linejoin:miter;stroke-miterlimit:10;"/><polygon fill="#181818" points="635.35,740.0675,626.35,736.0675,630.35,740.0675,626.35,744.0675,635.35,740.0675" style="stroke:#181818;stroke-width:1;stroke-linejoin:miter;stroke-miterlimit:10;"/><text fill="#000000" font-family="sans-serif" font-size="13" lengthAdjust="spacing" textLength="248.8662" x="369.2" y="733.1344">(10) Mathematical similarity matching</text></g><!--link Search to LLM--><g class="link" data-entity-1="ent0013" data-entity-2="ent0015" data-link-type="dependency" data-source-line="70" id="lnk29"><path d="M682.22,758.5875 C667.28,766.5875 652.49,777.7075 644,792.7175 C627.45,821.9575 654.9008,851.2327 679.3008,870.5627" fill="none" id="Search-to-LLM" style="stroke:#181818;stroke-width:1;"/><polygon fill="#181818" points="683.22,873.6675,678.6493,864.9435,679.3008,870.5627,673.6816,871.2142,683.22,873.6675" style="stroke:#181818;stroke-width:1;stroke-linejoin:miter;stroke-miterlimit:10;"/><text fill="#000000" font-family="sans-serif" font-size="13" lengthAdjust="spacing" textLength="304.2686" x="645" y="805.7844">(11) Fetches Top 2 contextual history matches</text></g><!--link Prompt to LLM--><g class="link" data-entity-1="ent0014" data-entity-2="ent0015" data-link-type="dependency" data-source-line="71" id="lnk30"><path d="M987.13,758.7075 C981.12,774.2075 970.32,796.3375 954,809.7175 C911.39,844.6475 858.0985,863.6285 809.0285,875.1085" fill="none" id="Prompt-to-LLM" style="stroke:#181818;stroke-width:1;"/><polygon fill="#181818" points="804.16,876.2475,813.8346,878.0921,809.0285,875.1085,812.0122,870.3025,804.16,876.2475" style="stroke:#181818;stroke-width:1;stroke-linejoin:miter;stroke-miterlimit:10;"/><text fill="#000000" font-family="sans-serif" font-size="13" lengthAdjust="spacing" textLength="256.5977" x="970" y="805.7844">(12) Injects strict constraint safeguards</text></g><!--link LLM to CLI--><g class="link" data-entity-1="ent0015" data-entity-2="ent0003" data-link-type="dependency" data-source-line="72" id="lnk31"><path d="M669.74,910.5275 C637.19,925.3375 589.16,947.0175 547,965.3075 C524.32,975.1475 503.9446,983.7726 481.8646,992.9826" fill="none" id="LLM-to-CLI" style="stroke:#181818;stroke-width:1;"/><polygon fill="#181818" points="477.25,994.9075,487.0962,995.1345,481.8646,992.9826,484.0165,987.751,477.25,994.9075" style="stroke:#181818;stroke-width:1;stroke-linejoin:miter;stroke-miterlimit:10;"/><text fill="#000000" font-family="sans-serif" font-size="13" lengthAdjust="spacing" textLength="328.8276" x="584" y="961.3744">(13) Generates Step-by-Step Fix Recommendation</text></g><!--link CLI to Retro--><g class="link" data-entity-1="ent0003" data-entity-2="ent0017" data-link-type="dependency" data-source-line="76" id="lnk33"><path d="M415,1048.2675 C415,1079.5775 415,1127.1875 415,1158.5075" fill="none" id="CLI-to-Retro" style="stroke:#181818;stroke-width:1;"/><polygon fill="#181818" points="415,1163.5075,419,1154.5075,415,1158.5075,411,1154.5075,415,1163.5075" style="stroke:#181818;stroke-width:1;stroke-linejoin:miter;stroke-miterlimit:10;"/><text fill="#000000" font-family="sans-serif" font-size="13" lengthAdjust="spacing" textLength="160.3164" x="416" y="1092.9744">(15) Run validation suite</text></g><?plantuml-src TLNlJ-Cu4FsUls9Kf3sYktRxWmAj459R6iG9M8x2xOUzqyeaqzPBOcTjfzrgTV_xpJXfMc3fbphncvddDsyS-onLBep8O2bKiZRIELGm5wd5mDPxTYaIlPPgyMPdBEBdXT65IYOwrGOEvlwtXuXrbck5oitS9aKm63kX5Ya6UvZw9VmCW7wlifwTVKPyxfoVmy6q4_MZQGdI9a7p6j3kZGRHaGT4Mhatsvt-oM3ijz-lrFMLekbuElXr9Gyu6VJxHwU_gkItUzFkIRSN_BT_paGuyIJiEyU4WoYAUjFswvhyVd3QRhyiHGoF-nrw-wA2qicxsQUdKV_jYU3WQ3AA-c-oTyRzQTTdTz9HP-unr_UZIvXjhCCCHYPUIaTzAmp21-Ws-U0mourK3g9KhuF0SsayMZHmfHoQkOYnKP7xSe4hJ7LEUn-18V-2i7u1PsUZF3y_hs1Y0uCXP4AgLhw1mydrLUYXjAYHn77de8OdqXd21OaDTpB7L2gcE7FQY0KnsDdXvwv8TmZumnaH4ueg-HhJxOiTh3U46tGYyRc5sH8lbplO4MNBdZ19Q6Q-PgH3MYRqx_Q1_I4G1AtRrhpoJpk3rfPfyEgZ4UklD56PTBRrpMhLu9W_PvzkMOGTTh8qEXCNO_WRcRy_EthiTkUjPAJ0FJeZSILIacjq1LEr8EcsWdLV2dOy18k2NE3x4icKEcpBtbGFE-p946QO2ULaJ0iEyhXokOET3k6EsEKE7Z3BK-6m5DU_yx3wCe76fnmLSHpTNP63hgzlQhOKGO-lJC7fEsq-uKhY-XT7wj6MI9kVjKaJ61SBkC1Cst_K1o-AjZdbagkIa7_31Nw3qcobrzZrS7XRK9CD9dIwxmMg6CFWoxMEITDBwVmKMKdTe6utc-SxYy4G3ZiXJBHILCd2IWeEkDkufLR13iP1fTiueXjkCrWWQu0Z3qFb3-fX8kTp6rHmZcIdS5mlX9bO8RN0cSBFS08FuecKEdpW5B_NBWy37yF1fJKv_2XajPBIUV2KwlZP1bjplyBsGxfLJ2Q8a2eoD9Abe4TQe0qg78VKdgMWuos_ohyZOyI6JxGtV9jK4uMw2Ltugq2pURyBZriH-EgW6YSXiSmBubMssyP6vavgHNwQ666NSAqN0OCvgF8q1vw6LDrQOkUrycM3xJvZIrypT132hJ16hsqrB61pkWNX45kBrXymroaBHchGPQeMOL1hSDOoSh5qhVradNO8Dy8jQPASLz7AJAQ2ljcREaLGmPa63mM7aQqYf6qch7CIAgPRdfWNb68fBPknZAT-LFEt7zvbdRvvKrhk6XjCqKhmJM_571U5CDG8nk_9so6FNQ92GsFCFiEy-RHfyZzf-OFympP5HSqaoMkP7ojZTyXYT_mjeQ8wBNnRf29_cqmgaNBNov66ALrNXKzIVdQscVoG-bJamFj20U5aMGriGP-k_m40?></g></svg>